<svg xmlns="http://www.w3.org/2000/svg" xmlns:xlink="http://www.w3.org/1999/xlink" xmlns:inkscape="http://www.inkscape.org/namespaces/inkscape" version="1.1" width="67.6707" height="77.16441" viewBox="0 0 67.6707 77.16441">
<path transform="matrix(1,0,0,-1,0,77.16441)" d="M36.5082 5.98671C16.0702 4.32971 .3512 24.32671 6.6602 43.80671 7.4962 46.37771 8.6912 48.82671 10.1932 51.06571 5.3932 43.71171 4.2102 34.22771 6.9912 25.91971 11.0912 13.46471 23.4182 5.14471 36.5082 5.98671" fill="#f7ebde"/>
<path transform="matrix(1,0,0,-1,0,77.16441)" d="M58.6992 51.18361C64.7952 42.60561 65.45219 30.66562 60.4872 21.40961 58.8472 18.33261 56.6532 15.55961 54.0412 13.27062 56.5652 15.64661 58.7012 18.43261 60.2872 21.51361 65.1152 30.77561 64.4762 42.48261 58.6992 51.18361" fill="#f7ebde"/>
<path transform="matrix(1,0,0,-1,0,77.16441)" d="M39.9244 63.52641C44.8584 62.80441 49.5484 60.55941 53.2964 57.28141 53.7544 56.86441 54.4094 56.24741 54.8304 55.80141 54.4344 56.15641 53.6204 56.84141 53.2044 57.17141 49.3404 60.27741 44.7594 62.44341 39.9244 63.52641" fill="#f7ebde"/>
<path transform="matrix(1,0,0,-1,0,77.16441)" d="M13.2693 54.76881C16.8523 58.90581 21.7973 61.85881 27.1243 63.10281L28.1953 63.32281 27.1443 63.02781C21.9153 61.49881 17.1173 58.62281 13.2693 54.76881" fill="#f7ebde"/>
<path transform="matrix(1,0,0,-1,0,77.16441)" d="M22.978 34.36691C23 34.19691 23.083 34.04091 23.19 33.90791L23.196 33.89991 23.186 33.89391C22.912 33.74291 22.724 34.00491 22.604 34.21791L22.209 34.84691 22.203 34.85691 22.212 34.86491 22.227 34.87691C19.387 39.13791 12.148 50.24091 9.451 54.45191 9.336 54.63491 9.307 54.61591 9.121 54.54991 8.976 54.54291 8.913 54.63891 8.856 54.68391L8.676 54.84691C8.435 55.06391 8.187 55.28791 7.995 55.56491 7.9 55.71991 7.839 55.78391 7.664 55.76791 7.466 55.76791 7.3 55.91591 7.219 56.06491 7.137 56.20391 7.05 56.40191 7.136 56.59291 7.172 56.68291 7.254 56.75591 7.308 56.80091 7.363 56.85591 7.377 56.88291 7.352 56.92691 7.284 57.03391 7.235 57.20191 7.289 57.33491 7.302 57.37691 7.339 57.43691 7.33 57.42691 7.321 57.48191 7.118 57.69791 7.068 57.77091 6.895 57.95991 6.673 58.34891 6.416 58.42291 5.767 58.61891 5.251 57.97091 4.6 57.93591L4.613 58.07491C4.795 58.04491 4.928 57.85091 4.938 57.67891 4.947 57.63591 4.955 57.54491 4.963 57.50491 5.002 57.34191 4.822 57.27591 4.705 57.26791 4.662 57.25691 4.572 57.26491 4.53 57.32991 4.494 57.38691 4.494 57.43191 4.486 57.46891 4.47 57.54091 4.448 57.83791 4.41 57.86591 4.403 57.87991 4.329 57.84991 4.259 57.81491 4.034 57.69891 3.623 57.56091 3.425 57.42291 3.316 57.35891 3.363 57.21491 3.403 57.06491 3.587 56.62491 3.626 56.02791 3.193 55.70591 2.316 55.00491 .989 55.62891 1.254 56.80391 1.311 57.13191 1.577 57.40291 1.881 57.51391L2.737 57.89291 3.594 58.27191 4.022 58.46091C4.214 58.52091 4.299 58.68091 4.239 58.85691 4.236 58.89091 4.189 58.90591 4.207 59.00091 4.297 59.18591 4.147 59.18491 4.003 59.19291L3.77 59.20791C3.099 59.24891 2.103 59.31991 1.434 59.35791 .581 59.31691 0 60.40491 .479 61.10191 1.02 62.02691 2.585 61.66291 2.573 60.55991L2.609 60.09291C2.615 60.01891 2.651 59.95991 2.721 59.94691 3.097 59.92191 3.509 59.92091 3.879 59.91491 4.064 59.93791 4.004 60.15391 4.092 60.27491 4.24 60.50091 4.58 60.44691 4.751 60.28591 4.887 60.18191 4.771 59.95491 4.9 59.87191 5.43 59.79491 5.982 59.95191 6.444 60.22091 6.671 60.38391 7.009 60.00991 6.879 59.79991 6.826 59.72191 6.742 59.69791 6.726 59.63691 6.703 59.51491 6.797 59.34491 6.902 59.26491 7.039 59.16091 7.274 59.06991 7.335 58.87191 7.337 58.86191 7.365 58.86091 7.381 58.87991 7.566 59.12591 7.894 59.24891 8.023 59.53491 8.071 59.67791 8.17 59.82191 8.256 59.94591 8.288 60.00091 8.353 60.10791 8.462 60.10091 8.697 60.08891 8.699 59.83791 8.598 59.68191 8.396 59.42991 8.257 59.16691 8.124 58.88091 8.057 58.73991 7.988 58.59791 7.91 58.46091 7.821 58.32691 7.767 58.21491 7.853 58.06891 7.888 58.00391 7.928 57.93891 7.982 57.90991 8.038 57.87891 8.09 57.89191 8.178 57.91891 8.268 57.93891 8.378 57.90091 8.43 57.81891 8.471 57.74691 8.511 57.69691 8.57 57.67291 8.713 57.61891 8.857 57.75491 9.016 57.72391 9.2 57.69891 9.326 57.55391 9.396 57.40491 9.467 57.25491 9.469 57.04891 9.344 56.91191 9.293 56.84991 9.272 56.81991 9.309 56.75691 9.513 56.34191 9.802 55.94891 9.924 55.49091 9.949 55.41791 10.038 55.25991 9.946 55.16191 9.859 55.08291 9.795 54.97491 9.858 54.85791 14.067 48.28391 18.822 40.96791 22.978 34.36691M22.963 34.36491C19.154 40.37291 14.57 47.19491 10.767 53.22591L9.756 54.81091C9.675 54.95291 9.746 55.13591 9.865 55.23591 9.873 55.24291 9.876 55.24991 9.878 55.25991 9.792 55.69391 9.547 56.10891 9.326 56.50291 9.288 56.59791 9.162 56.74891 9.196 56.86091 9.212 56.91291 9.242 56.94691 9.269 56.97891 9.507 57.25491 9.143 57.78291 8.796 57.59291 8.719 57.56891 8.626 57.54991 8.535 57.58591 8.373 57.63591 8.376 57.86291 8.195 57.82891 7.912 57.70191 7.696 58.02991 7.726 58.28191 7.814 58.51591 7.954 58.68691 8.048 58.91691 8.179 59.19591 8.336 59.48691 8.529 59.72091 8.562 59.78191 8.592 59.85791 8.585 59.91891 8.56 60.05091 8.392 60.07091 8.319 59.90391 8.239 59.77991 8.135 59.64591 8.089 59.50491 7.989 59.28091 7.767 59.14491 7.591 58.99791 7.492 58.94691 7.405 58.69991 7.276 58.83891 7.211 59.03791 7.024 59.08691 6.861 59.21491 6.738 59.31991 6.636 59.48191 6.667 59.65791 6.703 59.75291 6.798 59.77791 6.828 59.83291 6.903 59.94891 6.762 60.11791 6.667 60.18091 6.453 60.25291 6.253 60.01391 6.046 59.96691 5.679 59.82291 5.263 59.76491 4.878 59.82791 4.788 59.87491 4.783 59.98191 4.785 60.05591 4.802 60.21091 4.673 60.32791 4.525 60.35691 4.382 60.39991 4.211 60.37891 4.133 60.24891 4.059 60.12891 4.092 59.88191 3.888 59.86491 3.481 59.86891 3.107 59.86691 2.708 59.89291 2.616 59.90591 2.554 60.00591 2.553 60.08691L2.515 60.55291C2.529 61.59591 1.045 61.94091 .538 61.06491 .175 60.54991 .464 59.78191 .995 59.52191 1.271 59.40791 1.599 59.44291 1.907 59.41091L2.841 59.35391 3.776 59.29891C3.997 59.27391 4.46 59.34191 4.295 58.96391 4.29 58.97991 4.311 58.92891 4.329 58.88991 4.344 58.84091 4.349 58.80691 4.352 58.76091 4.387 58.40091 3.919 58.33191 3.634 58.17791L2.781 57.79491 1.927 57.41091C1.327 57.21391 1.177 56.41191 1.526 55.93491 1.888 55.42491 2.654 55.44391 3.108 55.80991 3.496 56.10891 3.432 56.61391 3.27 57.02591 3.218 57.18191 3.168 57.42091 3.338 57.53191 3.579 57.69991 3.937 57.80891 4.194 57.93891 4.262 57.95691 4.336 58.04691 4.482 57.98691 4.601 57.89191 4.569 57.78991 4.591 57.72091 4.617 57.59091 4.623 57.34491 4.682 57.40691 4.839 57.43391 4.835 57.43191 4.814 57.54191 4.802 57.70991 4.761 57.90891 4.578 57.93791L4.079 58.04991 4.591 58.07691C5.229 58.12491 5.766 58.78391 6.464 58.55891 6.771 58.46291 6.981 58.08391 7.181 57.86091L7.334 57.67191C7.392 57.58491 7.47 57.54591 7.475 57.41891 7.444 57.28991 7.407 57.29691 7.411 57.19291 7.404 57.06991 7.55 56.95791 7.497 56.82191 7.451 56.69391 7.309 56.64291 7.269 56.53391 7.213 56.41591 7.266 56.27191 7.345 56.13991 7.419 56.00891 7.531 55.91591 7.669 55.91391 7.737 55.91691 7.857 55.91491 7.941 55.85291 8.028 55.79491 8.073 55.70691 8.115 55.64791 8.338 55.32691 8.662 55.06091 8.956 54.79291 9.086 54.67391 9.065 54.68191 9.206 54.73591 9.359 54.79791 9.524 54.63891 9.576 54.53291 12.272 50.34991 19.464 39.19191 22.248 34.87391L22.255 34.86291 22.246 34.85591 22.231 34.84391 22.234 34.86191 22.624 34.23091C22.689 34.12691 22.748 34.01491 22.843 33.93891 22.934 33.85491 23.071 33.84891 23.178 33.91091L23.175 33.89591C23.068 34.03191 22.984 34.19091 22.963 34.36491" fill="#f7ebde"/>
<path transform="matrix(1,0,0,-1,0,77.16441)" d="M.881 60.10581C1.457 59.38481 2.445 60.02281 2.021 60.83681 1.598 61.70881 .419 60.84081 .881 60.10581M.868 60.09781C.26 61.02781 1.496 61.75581 2.094 60.87881 2.707 59.93881 1.473 59.14181 .868 60.09781" fill="#f7ebde"/>
<path transform="matrix(1,0,0,-1,0,77.16441)" d="M2.9306 56.85541C2.5126 57.54141 1.4086 56.92441 1.8026 56.21641 2.2056 55.45241 3.3496 56.13441 2.9306 56.85541M2.9436 56.86341C3.5016 55.93941 2.3106 55.40641 1.7326 56.16941 1.1726 57.00941 2.4366 57.79841 2.9436 56.86341" fill="#f7ebde"/>
<path transform="matrix(1,0,0,-1,0,77.16441)" d="M39.1037 72.83742C38.8227 72.89441 38.0707 72.72241 37.7817 72.69742L36.9067 72.57141C36.5747 72.53841 36.2037 72.36342 36.1467 72.83742 36.1117 72.88741 36.0917 72.87241 36.0627 72.91742 36.0147 72.96741 36.0377 73.02042 36.0947 73.06641 36.2077 73.15341 36.3317 73.23842 36.4497 73.32541L37.1667 73.84241 37.8837 74.35941C38.1177 74.53941 38.4077 74.67941 38.5357 74.96442 38.7917 75.53142 38.5197 76.28041 37.9057 76.46141 36.8847 76.76141 36.0787 75.67641 36.7067 74.77641L36.8097 74.57941C36.9117 74.43242 36.8297 74.36742 36.6987 74.29141L36.5137 74.16841 36.1437 73.92342C36.0187 73.85042 35.9007 73.71941 35.8067 73.79242 35.7557 73.82042 35.7197 73.88942 35.6447 73.93941 35.5017 74.04541 35.2927 73.98641 35.1827 73.86742 35.0587 73.76441 34.9727 73.56441 35.0677 73.41241 35.1717 73.27141 35.1527 73.21042 34.9997 73.13741 34.6967 72.93741 34.3597 72.79741 33.9927 72.76741 33.8367 72.73641 33.6547 72.78841 33.5417 72.63641 33.4897 72.55641 33.4847 72.47141 33.4837 72.39342 33.4687 72.26441 33.5677 72.11241 33.7237 72.12141 33.8317 72.12241 33.8487 72.05641 33.8657 71.94241 33.9187 71.73141 33.7077 71.54741 33.6947 71.32642 33.6897 71.28642 33.6977 71.23541 33.7037 71.20541 33.5857 71.25641 33.3917 71.27441 33.2527 71.28741 32.9427 71.29242 32.7337 71.52141 32.4607 71.61542 32.3927 71.65541 32.2727 71.68741 32.1987 71.62241 31.9287 71.37141 32.3267 71.17241 32.5357 71.11241 32.8657 70.97141 33.1657 70.73842 33.4917 70.56941 33.5627 70.53342 33.6217 70.51141 33.6547 70.46341 33.7147 70.38141 33.7307 70.19141 33.6737 70.11041 33.6407 70.06441 33.5887 70.06841 33.4957 70.02441 33.4107 69.98341 33.3627 69.86841 33.3757 69.78941 33.3857 69.64041 33.2867 69.57642 33.1507 69.55241 32.9837 69.52541 32.8437 69.37441 32.8237 69.20741 32.7857 69.01341 32.8537 68.76842 33.0457 68.66942 33.1037 68.63541 33.1797 68.63942 33.2057 68.58841 33.2367 68.42342 33.2357 68.23141 33.2477 68.05841 33.2567 67.72141 33.3077 67.37842 33.4077 67.06041 33.4227 67.01842 33.4697 66.96541 33.5267 66.95641 33.7777 66.92441 33.7417 66.71541 33.7337 66.48842 33.7217 64.59241 33.7097 62.54841 33.6977 60.44641 33.7347 60.44641 33.7697 60.44442 33.8037 60.44141 33.8237 62.55941 33.8397 64.62741 33.8467 66.48741 33.8447 66.63541 33.8847 66.82442 33.7747 66.95241 33.7117 67.02341 33.6247 67.05241 33.5487 67.06641 33.5187 67.06641 33.4987 67.12541 33.4867 67.19942 33.3287 67.67241 33.3927 68.15041 33.3077 68.63242 33.2857 68.68642 33.2337 68.71741 33.1957 68.73241 32.8487 68.78542 32.8257 69.39342 33.1737 69.44441 33.2477 69.46042 33.3317 69.48341 33.3997 69.54741 33.5407 69.66341 33.4237 69.85442 33.5507 69.92941 33.5857 69.95242 33.6997 69.95941 33.7587 70.04242 33.8547 70.19542 33.8317 70.38441 33.7417 70.52841 33.6867 70.60442 33.5997 70.63541 33.5417 70.66641 33.2137 70.83641 32.9267 71.06342 32.5777 71.21242 32.4637 71.25641 32.0927 71.36742 32.2637 71.53642 32.3027 71.56541 32.3427 71.55441 32.4157 71.51642 32.5567 71.45441 32.6817 71.40941 32.7987 71.31541 33.0667 71.13641 33.3827 71.21042 33.6687 71.10641 33.6997 71.09941 33.7327 71.10242 33.7627 71.12141 33.8377 71.15642 33.7957 71.26141 33.8007 71.31941 33.8257 71.53241 34.0317 71.72742 33.9707 71.96042 33.9567 72.02741 33.9537 72.12741 33.8607 72.19141 33.8167 72.21941 33.7687 72.22641 33.7287 72.22841 33.5577 72.21541 33.5647 72.45242 33.6287 72.57642 33.7067 72.67442 33.8877 72.63741 34.0047 72.66241 34.3757 72.69341 34.7377 72.83742 35.0497 73.04541 35.1107 73.08341 35.1977 73.11441 35.2347 73.22241 35.2667 73.41142 35.0777 73.46741 35.1407 73.63441 35.2057 73.79942 35.4167 73.97542 35.5897 73.85641 35.6797 73.78841 35.7537 73.65741 35.8897 73.67542 36.0147 73.69241 36.1007 73.78841 36.1997 73.84541L36.5657 74.09041C36.6667 74.17041 36.8647 74.25742 36.9307 74.37441 36.9767 74.47141 36.9217 74.56541 36.8887 74.62441L36.7857 74.81841C35.9177 76.06941 37.8547 77.16441 38.4837 75.82941 38.5797 75.56342 38.5887 75.25241 38.4727 74.99341 38.3577 74.72942 38.0757 74.59241 37.8457 74.41241L37.1307 73.89241 36.4147 73.37241C36.2547 73.22542 35.7587 73.03441 36.0967 72.81241 36.1547 72.32141 36.5687 72.47241 36.9147 72.51941L37.7887 72.64841C38.0767 72.67442 38.8207 72.84541 39.0947 72.79242 39.5157 72.70741 39.8317 72.26041 39.8307 71.83942 39.8337 71.22441 39.2107 70.80541 38.6337 70.85141 38.1567 70.87241 37.9007 71.31741 37.8287 71.74341 37.7887 71.88141 37.7487 72.07442 37.5777 72.10042 37.3147 72.12341 36.9567 72.02042 36.6957 72.00041 36.6277 71.98341 36.5407 72.00241 36.4727 71.93041 36.4197 71.83841 36.4837 71.76241 36.5057 71.69841L36.5947 71.49741C36.6267 71.42841 36.6497 71.36342 36.5807 71.34041 36.5167 71.31441 36.4387 71.27541 36.3977 71.30942 36.3617 71.34142 36.3337 71.44742 36.3047 71.49541 36.2397 71.62441 36.2367 71.76941 36.3447 71.87541L36.4597 71.99841C36.1577 71.79242 35.7987 71.76241 35.4367 71.73541 34.9797 71.70941 34.4497 71.45142 34.4417 70.93341 34.4257 70.78041 34.3767 70.40341 34.3617 70.25342 34.3597 70.17241 34.3207 70.08841 34.3707 70.00742 34.4407 69.94041 34.4927 69.93741 34.5357 69.85841 34.5697 69.79941 34.5817 69.72841 34.5837 69.65442 34.5797 69.55942 34.6797 69.48842 34.7647 69.48141 35.0097 69.47342 35.1237 69.27541 35.1177 69.04141 35.1257 68.89641 35.0797 68.75041 34.9597 68.67342 34.9007 68.63841 34.8187 68.58441 34.7857 68.50241 34.7497 68.42142 34.7567 68.33542 34.7527 68.26442 34.7367 67.89241 34.6127 67.52141 34.5137 67.16042 34.4957 67.08742 34.4747 67.01241 34.4307 66.99242 34.3877 66.98042 34.2657 66.97641 34.2107 66.89542 34.1517 66.81541 34.1557 66.72742 34.1537 66.65241 34.1537 66.65241 34.1117 62.39441 34.0927 60.38441 34.1267 60.37241 34.1587 60.36041 34.1907 60.34541 34.2117 62.44741 34.2237 64.55042 34.2357 66.65141 34.2367 66.75941 34.2397 66.86241 34.3487 66.89342 34.3807 66.90541 34.4087 66.89841 34.4647 66.91942 34.5627 66.97441 34.5697 67.07242 34.5907 67.13942L34.6517 67.35941C34.7727 67.71242 34.8107 68.10641 34.8537 68.47241 34.8797 68.53441 34.9317 68.57141 35.0017 68.61241 35.2637 68.78642 35.2557 69.29341 35.0057 69.47641 34.9027 69.57242 34.6697 69.49841 34.6517 69.65842 34.6497 69.73441 34.6367 69.81941 34.5937 69.89241 34.5647 69.95941 34.4677 70.01241 34.4237 70.04541 34.3897 70.10542 34.4507 70.38242 34.4527 70.47342 34.4947 70.72041 34.4747 71.13641 34.6477 71.33441 35.0477 71.80241 35.7227 71.60242 36.2437 71.82442 36.1707 71.68242 36.2287 71.51442 36.3047 71.37441 36.3197 71.34441 36.3277 71.30241 36.3667 71.27042 36.4057 71.23842 36.4577 71.24442 36.4937 71.25441 36.5677 71.28241 36.6767 71.30141 36.6747 71.40341 36.6617 71.49242 36.5837 71.63441 36.5487 71.71841 36.4467 71.91241 36.5047 71.93541 36.6997 71.95541 36.9477 71.97742 37.3287 72.08041 37.5707 72.05942 37.7147 72.03941 37.7497 71.86542 37.7907 71.73241 37.8577 71.44942 37.9527 71.13841 38.2107 70.96541 38.8517 70.53841 39.8787 71.05341 39.8717 71.83841 39.8737 72.28041 39.5467 72.74741 39.1037 72.83742" fill="#f7ebde"/>
<path transform="matrix(1,0,0,-1,0,77.16441)" d="M37.5405 74.69872C38.3265 74.72871 38.3745 76.02271 37.5745 76.09071 36.7165 76.18071 36.7865 74.74671 37.5405 74.69872M37.5405 74.68671C36.6145 74.72771 36.6515 76.14272 37.5755 76.15471 38.5325 76.14171 38.4925 74.67072 37.5405 74.68671" fill="#f7ebde"/>
<path transform="matrix(1,0,0,-1,0,77.16441)" d="M38.8282 72.48981C38.0912 72.47481 38.0922 71.20781 38.8432 71.21681 39.6232 71.21082 39.6032 72.49781 38.8282 72.48981M38.8282 72.50182C39.7922 72.51381 39.6882 71.26682 38.8462 71.15381 37.9382 71.08081 37.9222 72.52881 38.8282 72.50182" fill="#f7ebde"/>
<path transform="matrix(1,0,0,-1,0,77.16441)" d="M65.2977 61.61591 65.2787 61.38991C65.28571 61.20591 65.1817 61.19791 65.0267 61.20291L64.8007 61.19791 64.35071 61.18891C64.2037 61.19391 64.03171 61.14491 63.9897 61.25991 63.9607 61.31091 63.9677 61.39091 63.93071 61.47391 63.8657 61.64191 63.65471 61.70391 63.4957 61.66291 63.33371 61.64091 63.1517 61.51691 63.1507 61.33491 63.1647 61.15791 63.1137 61.11391 62.9417 61.13491 62.5747 61.12791 62.20771 61.19091 61.87671 61.36491 61.7267 61.42191 61.59771 61.56591 61.4197 61.49691 61.3317 61.45691 61.2817 61.38691 61.23771 61.32091 61.15471 61.21491 61.1577 61.03791 61.2967 60.95791 61.38971 60.89991 61.3687 60.83291 61.3217 60.72591 61.25171 60.51491 60.9707 60.47291 60.8397 60.28991 60.8147 60.25791 60.79271 60.20991 60.7827 60.18091 60.7047 60.28891 60.5517 60.40991 60.4377 60.49591 60.1747 60.66891 60.1197 60.97891 59.9357 61.20791 59.8997 61.27891 59.8147 61.37091 59.7167 61.35591 59.3497 61.28691 59.5827 60.90091 59.7287 60.73691 59.9367 60.43591 60.0667 60.07391 60.2547 59.75091 60.2957 59.68191 60.33471 59.63091 60.3367 59.57091 60.3437 59.46791 60.2547 59.29591 60.1607 59.25791 60.1077 59.23591 60.0647 59.26791 59.9607 59.27991 59.8667 59.29091 59.76371 59.21891 59.7307 59.14391 59.6017 58.89491 59.3567 59.14991 59.15471 59.07991 58.9117 59.00491 58.7527 58.73991 58.7947 58.48491 58.8027 58.40891 58.8677 58.31791 58.9117 58.26991 58.9557 58.20791 58.9257 58.18591 58.8957 58.11991 58.66771 57.68891 58.3917 57.26391 58.27771 56.78491 58.2387 56.66591 58.4117 56.58091 58.4217 56.47691 58.4407 56.36391 58.3257 56.24591 58.2467 56.11691L57.2767 54.60691C55.7937 52.28991 54.07071 49.60191 52.3327 46.89191 52.3417 46.85291 52.3507 46.81291 52.3567 46.77191 54.3997 49.92291 56.5547 53.25691 58.3417 56.05591 58.4197 56.18391 58.5577 56.32391 58.5327 56.49391 58.51571 56.58791 58.4577 56.65991 58.4007 56.71391 58.3737 56.73091 58.38971 56.79291 58.4187 56.86191 58.5397 57.35391 58.8547 57.72991 59.0437 58.18891 59.0537 58.24691 59.0257 58.30091 59.00171 58.33491 58.7317 58.56891 59.0437 59.10391 59.3697 58.95891 59.5267 58.88391 59.7437 58.91591 59.8247 59.08691 59.8577 59.14791 59.8987 59.17091 59.9567 59.17091 59.99971 59.17091 60.1017 59.11591 60.1967 59.15391 60.36171 59.23391 60.44471 59.40791 60.44571 59.57991 60.4407 59.67491 60.3817 59.74891 60.34871 59.80691 60.1597 60.13091 60.0357 60.48091 59.8177 60.79891 59.7437 60.89891 59.48571 61.19591 59.7257 61.24791 59.7747 61.25191 59.8037 61.22091 59.8457 61.14791 59.9327 61.01891 60.01571 60.91191 60.0647 60.76791 60.1977 60.46891 60.5087 60.36091 60.6977 60.11591 60.7207 60.09391 60.75071 60.07891 60.7857 60.07791 60.8697 60.06791 60.88971 60.18091 60.9257 60.22691 61.0627 60.39691 61.3457 60.45191 61.4197 60.68391 61.44471 60.74991 61.4957 60.83791 61.4507 60.94291 61.4287 60.98991 61.39071 61.02091 61.3577 61.04491 61.2037 61.12691 61.3387 61.32791 61.4607 61.39891 61.5807 61.44191 61.7167 61.31091 61.8307 61.26891 62.16671 61.09491 62.5547 61.02091 62.9357 61.02991 63.0077 61.02991 63.0997 61.00891 63.1897 61.08191 63.31971 61.22691 63.1877 61.37691 63.33271 61.48691 63.4787 61.59291 63.7557 61.62891 63.8397 61.43291 63.8807 61.32591 63.8717 61.17291 63.9987 61.11391 64.1147 61.06091 64.2417 61.09691 64.3567 61.09291L64.8037 61.10391C64.93271 61.11791 65.1517 61.08491 65.27071 61.14891 65.3627 61.20691 65.3667 61.31691 65.36971 61.38691L65.3877 61.60791C65.3217 63.15391 67.5787 63.04191 67.39371 61.55391 67.3327 61.27291 67.1707 61.00191 66.93071 60.84291 66.68871 60.67791 66.3717 60.71391 66.07671 60.68391L65.18071 60.62591 64.2847 60.56891C64.0977 60.53791 63.88871 60.58791 63.7167 60.48991 63.6487 60.43191 63.6827 60.31291 63.70771 60.26091 63.7057 60.23891 63.6787 60.20391 63.6687 60.15991 63.5517 59.77791 63.9967 59.69091 64.2507 59.56591 64.66071 59.38491 65.47971 59.01791 65.8907 58.83791 66.5007 58.66391 66.7057 57.90991 66.3837 57.39891 66.0517 56.86891 65.2897 56.84891 64.8197 57.19991 64.42171 57.47791 64.4427 57.99891 64.6127 58.40291 64.65271 58.54291 64.72371 58.73091 64.5907 58.84591 64.3777 59.00891 64.01471 59.11391 63.7807 59.23891 63.7117 59.26091 63.6477 59.32491 63.5507 59.29991 63.4557 59.24991 63.4687 59.14991 63.4537 59.08291L63.4217 58.86191C63.4107 58.78591 63.3947 58.71791 63.3227 58.73491 63.2547 58.74691 63.16571 58.75691 63.1487 58.80791 63.1357 58.85491 63.1687 58.96191 63.1707 59.01791 63.1847 59.16491 63.2607 59.29091 63.4117 59.32291L63.5737 59.36491C63.2047 59.35291 62.8807 59.52291 62.55571 59.69491 62.1497 59.92091 61.55571 59.98791 61.2667 59.54691 61.1707 59.42491 60.9237 59.12691 60.8297 59.00691 60.7837 58.93891 60.7047 58.88691 60.7037 58.79091 60.7277 58.69691 60.7697 58.66491 60.76371 58.57391 60.7617 58.50491 60.7337 58.43791 60.69471 58.37191 60.63971 58.29291 60.6867 58.17891 60.7557 58.12691 60.9617 57.98691 60.9527 57.75391 60.82071 57.55591 60.7477 57.42791 60.6287 57.32691 60.4847 57.32591 60.4147 57.32891 60.3147 57.32691 60.2417 57.27391 60.16771 57.22391 60.12671 57.14691 60.08471 57.08791 59.8687 56.77791 59.5617 56.52691 59.2807 56.26991 59.2247 56.21791 59.16671 56.16391 59.1167 56.17091 59.0737 56.18491 58.9677 56.24691 58.87571 56.20791 58.7827 56.17091 58.73771 56.09291 58.69571 56.02991L54.6717 49.80591C54.6767 49.80191 53.6647 48.23991 52.3567 46.22491 52.3547 46.20991 52.34871 46.19491 52.3457 46.17991 52.34671 46.13591 52.34671 46.09291 52.3447 46.04991 53.2757 47.47091 54.1277 48.77691 54.7547 49.75091 56.1007 51.82291 57.43171 53.90491 58.76471 55.98491 58.8237 56.07791 58.8837 56.16391 58.9927 56.13191 59.02771 56.12491 59.0477 56.10291 59.1067 56.09091 59.2207 56.08491 59.27971 56.16591 59.33471 56.21191L59.5057 56.36691C59.8017 56.60391 60.0477 56.92191 60.2837 57.21191 60.3397 57.25091 60.40471 57.25491 60.48671 57.25291 60.6607 57.25291 60.8077 57.38191 60.8817 57.51991 60.95871 57.65091 61.0347 57.82591 60.95871 57.99091 60.9267 58.06891 60.8577 58.13091 60.8027 58.17691 60.7467 58.22691 60.7187 58.28291 60.7547 58.33891 60.8497 58.48191 60.8517 58.65091 60.7697 58.79491 60.7667 58.84291 60.8367 58.90691 60.8807 58.96591 60.9767 59.08491 61.2157 59.38391 61.3157 59.50791 61.4937 59.76791 61.8017 59.86991 62.1037 59.79591 62.5307 59.71691 62.8697 59.40091 63.3037 59.33591 63.1967 59.27291 63.1277 59.14891 63.1197 59.02591 63.11271 58.94791 63.0877 58.87491 63.1017 58.79191 63.13871 58.70091 63.2387 58.70291 63.3167 58.68591 63.4217 58.66291 63.4627 58.76991 63.4687 58.85391L63.50071 59.07791C63.5107 59.14791 63.51571 59.23491 63.5667 59.25691 63.6227 59.27491 63.6917 59.22491 63.7597 59.19891 63.9847 59.08291 64.36771 58.96491 64.5627 58.81491 64.6767 58.71991 64.61171 58.55091 64.57471 58.41491 64.4017 57.99991 64.3887 57.45691 64.7977 57.17191 65.2867 56.80491 66.07271 56.82991 66.41771 57.37591 66.65871 57.75391 66.6317 58.33191 66.3007 58.64991 66.0937 58.84991 65.3497 59.11291 65.0907 59.24791L64.2717 59.61391C63.9677 59.76691 63.5547 59.81791 63.76371 60.25591 63.7597 60.31791 63.73571 60.31591 63.7347 60.36991 63.7197 60.43891 63.7697 60.47191 63.8437 60.48091 63.98671 60.49391 64.1407 60.49991 64.2887 60.50991L65.18471 60.56491 66.0807 60.61891C66.79271 60.60791 67.27771 60.78691 67.4657 61.53891 67.6707 63.14591 65.2477 63.26891 65.2977 61.61591" fill="#f7ebde"/>
<path transform="matrix(1,0,0,-1,0,77.16441)" d="M65.9702 61.09591C66.6622 60.69391 67.4062 61.77991 66.75621 62.27291 66.0672 62.81491 65.34821 61.54791 65.9702 61.09591M65.9642 61.08591C65.1942 61.63091 65.9852 62.81291 66.7912 62.32591 67.60321 61.79491 66.77121 60.55691 65.9642 61.08591" fill="#f7ebde"/>
<path transform="matrix(1,0,0,-1,0,77.16441)" d="M65.87601 58.50131C65.235 58.88931 64.548 57.80031 65.19701 57.40031 65.864 56.97131 66.547 58.08731 65.87601 58.50131M65.882 58.51131C66.715 57.99831 65.94901 56.98431 65.166 57.34531 64.351 57.78231 65.114 59.02131 65.882 58.51131" fill="#f7ebde"/>
<path transform="matrix(1,0,0,-1,0,77.16441)" d="M61.3245 34.93511C61.3245 20.32111 49.4775 8.47411 34.8635 8.47411 20.2495 8.47411 8.4025 20.32111 8.4025 34.93511 8.4025 49.54911 20.2495 61.39611 34.8635 61.39611 49.4775 61.39611 61.3245 49.54911 61.3245 34.93511" fill="#3b5e6e"/>
<path transform="matrix(1,0,0,-1,0,77.16441)" d="M38.2095 .00041C37.7865 .6564 37.5075 1.4214 37.5005 2.2084 37.4835 2.61041 37.7205 2.9584 37.7705 3.34541 37.7905 3.53841 37.7215 3.7364 37.5985 3.88441 37.3405 4.16241 36.8805 4.2774 36.7805 4.69641 36.5935 5.3784 37.4005 5.98741 37.0505 6.66541 36.4655 7.6154 35.1235 7.57841 34.3295 8.2984 33.3155 9.0834 33.6935 10.7494 34.7625 11.30042 35.4405 11.67941 36.2905 11.89941 37.0405 11.60641 37.7455 11.25441 38.4435 10.86041 39.2425 11.16841 39.9885 11.40941 40.4165 12.1844 41.1885 12.45341 41.9435 12.75441 42.7965 12.57841 43.4725 12.17441 44.1355 11.77441 44.9925 11.6584 45.6135 12.19641 46.2155 12.67941 46.6345 13.36341 46.9705 14.05941 47.6525 15.46341 47.9505 17.03641 47.8375 18.59241 47.7015 20.0914 47.3925 21.76741 46.3165 22.88541 45.6495 23.54141 44.9235 22.73741 44.6205 22.11641 44.1945 21.40141 44.4325 20.63741 44.6865 19.90841 44.9245 19.1604 45.1255 18.39941 45.2825 17.62941 45.3895 17.05741 45.5325 16.41641 45.2965 15.8534 44.6155 14.16141 42.7065 13.24841 40.9665 13.15041 40.1835 13.11942 39.2615 13.2704 38.7955 13.98241 38.1685 14.98041 39.0035 15.51241 39.9145 15.61841 40.3085 15.68741 40.7195 15.6734 41.1095 15.60741 41.4915 15.54741 41.8975 15.44041 42.1545 15.71141 42.7035 16.23941 42.3625 17.27541 41.6485 17.45641 40.6875 17.67441 39.7655 17.07141 38.8185 16.95441 38.1705 16.88041 38.1525 17.47241 38.3975 17.89641 38.6785 18.51441 39.4245 18.62341 40.0025 18.56941 40.3865 18.55841 40.7865 18.55641 41.0675 18.78641 41.6015 19.2294 41.7175 20.25241 41.2595 20.78141 40.7115 21.29141 39.8125 21.23441 39.1135 21.10041 37.5195 20.76141 36.1375 19.70441 36.9065 17.95241 37.1755 17.22341 37.4755 16.36541 37.0955 15.60741 36.7365 14.87041 36.0305 14.3414 35.2415 14.14441 33.2545 13.64941 32.9405 16.2984 33.2465 17.68341 33.3465 18.47641 33.8935 19.15741 34.2765 19.79541 34.5685 20.48641 34.3085 21.31541 33.8915 21.90841 32.7635 23.62141 30.2025 23.29241 28.9035 21.96341 27.9445 21.09541 28.6335 19.66841 29.8345 19.5764 31.9105 19.57541 32.3415 17.88041 32.2885 16.12241 32.1115 12.29941 26.2945 11.27841 26.0725 15.65241 26.0355 16.40641 26.3105 17.63041 27.2885 17.53241 27.6945 17.50541 28.0745 17.42841 28.3365 17.65541 28.7185 17.97441 28.8385 18.66641 28.5475 19.09241 28.2035 19.54041 27.6205 19.72641 27.1345 20.01541 26.4395 20.38941 25.7755 20.83141 25.1715 21.34541 24.5735 21.87541 23.9575 22.46341 23.7675 23.28241 23.6445 23.88141 23.7575 24.59541 24.2265 25.03241 24.7775 25.61441 25.4985 25.66541 25.8105 24.83441 26.0425 24.37541 26.0475 23.62441 26.5425 23.43541 26.8445 23.38741 27.1975 23.68741 27.2905 23.97041 27.4295 24.47641 27.1905 25.08641 26.8585 25.46841 26.6165 25.74041 26.2655 25.94641 25.9985 26.27541 25.4945 26.94141 25.3015 27.84741 25.6315 28.63841 26.1585 29.70241 27.9695 29.19441 28.1875 28.13341 28.2825 27.5484 28.2285 26.96441 28.4445 26.41341 28.6935 25.7034 29.1345 25.03841 29.7185 24.57541 30.0125 24.3544 30.3605 24.18941 30.7005 24.22241 31.1755 24.27741 31.7115 24.72541 31.7745 25.21741 31.7895 25.3694 31.7095 25.47041 31.5595 25.56641 31.2295 25.76541 30.7565 25.90141 30.5885 26.32241 30.4145 26.75541 30.5465 27.23741 30.8555 27.56841 31.1775 27.91341 31.7105 27.85341 32.1045 27.72241 34.2565 26.97041 36.5745 25.97041 38.8455 26.81541 39.5745 27.05841 40.2645 27.41541 40.9045 27.84741 41.5665 28.27341 42.1075 28.87541 42.8435 29.20241 43.5925 29.50441 44.4195 29.80841 45.2225 29.50841 46.0005 29.19341 46.5975 28.38141 46.4975 27.51941 46.3705 26.64841 45.5585 26.14641 44.8355 25.81641 44.1135 25.4534 43.3005 25.34541 42.5065 25.32941 40.9565 25.23941 39.3565 25.42241 37.8275 25.26741 36.4185 24.99141 34.3255 24.26841 35.8215 22.59241 36.0775 22.32741 36.4005 22.10741 36.7435 22.01241 37.0805 21.93341 37.4655 22.02941 37.8295 22.13741 39.3015 22.62141 40.7065 23.34341 42.0865 24.05341 42.7675 24.44241 43.5425 24.70641 44.3045 24.88441 48.2865 26.06141 47.5765 22.63541 49.5135 23.70041 49.8025 23.89941 49.8535 24.29141 49.7585 24.63941 49.6095 25.18741 49.2155 25.6174 48.6445 25.71541 48.2225 25.77941 47.8635 26.15241 47.7695 26.56941 47.6835 26.87341 47.7045 27.3004 48.0115 27.49741 48.2615 27.6604 48.6195 27.59541 48.8155 27.78241 49.1585 28.09441 49.1335 28.9234 48.5895 29.02741 48.1805 29.0764 47.7565 29.42241 47.6975 29.84841 47.5885 30.30941 47.1745 32.43441 46.4925 31.98041 46.2035 31.78641 45.9585 31.44541 45.6495 31.19141 45.1905 30.79441 44.5555 30.53641 43.9385 30.64041 43.3775 30.74741 42.8385 31.0914 42.2705 30.90541 41.4415 30.73441 41.2865 29.78341 40.5865 29.38741 39.0975 28.36241 37.5125 30.01641 36.2715 28.34741 35.6575 27.33841 34.9205 27.61841 34.2505 28.38041 33.7225 28.92441 33.0435 29.36341 32.2755 29.39941 31.9005 29.42241 31.5255 29.33541 31.1405 29.25241 29.8305 28.90341 28.7875 29.54941 27.9935 30.53341 27.2475 31.23141 25.7055 31.5784 24.8885 30.86141 24.3305 30.30141 24.5475 29.40341 24.3725 28.67841 24.2355 27.88041 23.6785 27.15741 22.9335 26.83441 22.4325 26.56241 21.7635 26.56841 21.4305 26.08941 21.2315 25.74941 21.3915 25.3974 21.6285 25.11341 22.2735 24.36141 22.7795 23.4254 22.7395 22.40741 22.7445 21.62341 22.3145 20.87941 22.4055 20.10741 22.4565 19.74141 22.6155 19.37541 22.8625 19.10241 23.1085 18.82941 23.4945 18.67841 23.7785 18.37541 24.0585 18.07741 24.2615 17.72041 24.3765 17.33041 24.6215 16.55441 24.2515 15.75941 24.4125 14.98941 24.5635 14.23141 25.0495 13.5914 25.6735 13.1454 26.2015 12.73241 26.9345 12.3804 27.1035 11.66141 27.2175 11.15541 27.0405 10.62041 26.7445 10.2164 26.0485 9.1974 24.7345 8.81841 23.5535 8.95341 22.3865 9.0724 21.1315 9.59741 20.5575 10.6804 20.2175 11.42641 20.4635 12.24541 20.2985 13.01941 20.1615 14.20341 19.5325 15.20741 18.9555 16.22141 18.5875 16.91441 18.2405 17.6174 17.9195 18.33341 17.6085 19.05241 17.2935 19.77941 17.1575 20.56541 17.0795 20.96041 17.1525 21.39141 17.3925 21.72241 17.6255 22.07141 18.0175 22.2294 18.3085 22.46941 18.6105 22.70741 18.8105 23.04941 18.9205 23.41341 19.2155 24.59841 18.2945 25.61341 18.0135 26.72641 17.7795 27.47541 17.8425 28.35341 18.3155 29.00641 18.8265 29.60341 19.5175 30.01841 19.8115 30.78341 20.1695 31.49341 20.2315 32.27641 20.3915 33.04341 20.6535 34.0094 21.5685 33.95641 22.3695 33.82141 23.1485 33.71241 23.9335 34.03241 24.4915 34.57241 25.1725 35.24141 25.6845 36.1884 25.6745 37.15741 25.6125 37.7424 25.4885 38.3134 25.3695 38.89241 25.3145 39.14341 25.3995 39.43641 25.5435 39.65341 26.2265 40.81241 28.7195 41.82941 27.8345 43.42441 27.6965 43.65041 27.5175 43.85041 27.3235 44.02941 28.3785 43.12241 28.1605 42.20941 27.2355 41.32741 26.6855 40.7594 26.0015 40.30841 25.5615 39.64241 25.4205 39.42141 25.3375 39.15341 25.3925 38.89441 25.5125 38.32341 25.6405 37.74341 25.7045 37.1604 25.7175 36.18041 25.2085 35.22241 24.5195 34.54241 23.9555 33.99041 23.1575 33.66741 22.3645 33.77141 21.7985 33.83341 21.1525 33.98441 20.7175 33.52541 20.3085 33.08341 20.3905 32.4274 20.2425 31.87441 20.1605 31.48941 20.0375 31.11241 19.8725 30.75441 19.5895 29.9944 18.8745 29.54241 18.3765 28.96141 17.3595 27.53841 18.4785 25.97341 18.9665 24.57041 19.2345 23.8134 19.0125 22.89841 18.3735 22.39041 18.0635 22.13641 17.6895 21.98241 17.4805 21.66141 17.2585 21.34541 17.1905 20.96141 17.2675 20.58141 17.4015 19.82041 17.7175 19.09541 18.0295 18.3824 18.3515 17.67141 18.7005 16.97141 19.0695 16.28241 19.6585 15.26041 20.2935 14.24141 20.4385 13.04141 20.6045 12.28941 20.3725 11.44841 20.6905 10.74341 21.4495 9.38741 23.2585 8.9084 24.7165 9.1454 25.8005 9.3114 26.9465 10.18741 26.9795 11.35141 26.9895 12.1804 26.1525 12.56841 25.5765 13.0164 24.9275 13.4784 24.4075 14.16141 24.2515 14.95841 24.0765 15.76841 24.4565 16.55641 24.2155 17.28341 24.1105 17.64341 23.9135 17.98741 23.6575 18.2574 23.4055 18.53341 23.0255 18.67741 22.7385 18.98641 22.4605 19.29441 22.2935 19.67941 22.2355 20.08541 22.1345 20.89241 22.5665 21.62341 22.5645 22.41141 22.6045 23.38641 22.1045 24.28441 21.4855 25.00541 21.2185 25.31041 21.0295 25.79641 21.2745 26.17941 21.6205 26.72041 22.3545 26.72741 22.8565 26.99941 23.5545 27.30541 24.0605 27.96541 24.1905 28.71441 24.3635 29.46541 24.1405 30.38741 24.7575 30.99741 25.3845 31.58541 26.3245 31.49141 27.0775 31.2704 27.8925 31.10041 28.3645 30.33841 28.9495 29.85341 29.5665 29.38741 30.3505 29.25341 31.1005 29.44641 32.3175 29.82941 33.5365 29.46541 34.3925 28.52441 35.0205 27.83541 35.5625 27.57541 36.1085 28.47141 36.4655 28.96741 37.0495 29.31541 37.6655 29.35841 38.6195 29.37941 39.6225 28.9514 40.4725 29.56441 40.9855 29.85141 41.1835 30.48341 41.6515 30.84641 41.9935 31.09541 42.4185 31.20541 42.8375 31.16141 43.4115 31.08841 43.9445 30.71841 44.5195 30.86441 45.0835 30.96041 45.5395 31.34641 45.9205 31.75941 46.1845 32.05841 46.6425 32.48841 47.0495 32.13041 47.4845 31.66941 47.5905 31.05441 47.7885 30.47541 47.9005 30.0914 47.8885 29.66841 48.1615 29.45741 48.3635 29.24941 48.7115 29.29341 48.9535 29.10741 49.3795 28.73641 49.3685 28.00041 48.9675 27.61241 48.7895 27.45041 48.5485 27.41841 48.3695 27.38641 47.7495 27.30741 47.9225 26.50341 48.2415 26.17041 48.4635 25.91441 48.9115 25.96141 49.2825 25.71441 49.6435 25.47241 49.8715 25.10041 49.9845 24.69941 50.3795 23.40141 48.6985 22.76841 47.9125 23.71941L47.5225 24.15941C46.4295 25.42641 44.6135 24.7294 43.2495 24.32541 41.4595 23.54041 39.7845 22.48641 37.9025 21.89641 37.0445 21.57441 36.2605 21.73941 35.6365 22.41741 33.9935 24.29241 36.1225 25.22141 37.7875 25.52441 38.4875 25.64241 39.4475 25.57341 40.1545 25.57741 40.9355 25.56941 41.7185 25.56741 42.4955 25.59641 43.2765 25.61541 44.0175 25.70841 44.7245 26.0634 45.3725 26.35941 46.1175 26.80641 46.2265 27.55541 46.3185 28.26641 45.7735 28.99741 45.1235 29.25041 44.4435 29.51641 43.6495 29.22441 42.9595 28.94841 42.2725 28.64641 41.7355 28.04541 41.0615 27.61341 38.3645 25.76641 36.0545 25.94241 33.1195 27.05141 32.7485 27.18441 32.3845 27.33241 32.0215 27.44341 31.6945 27.54241 31.3175 27.62441 31.0605 27.36441 30.8345 27.13341 30.7285 26.72541 30.8525 26.43541 31.0755 25.89841 32.1195 25.93141 32.0595 25.20041 31.9635 24.53741 31.3825 24.03841 30.7295 23.94041 30.2755 23.90141 29.8725 24.10841 29.5475 24.35141 28.9045 24.86441 28.4505 25.56041 28.1805 26.32341 27.9605 26.88141 28.0025 27.50441 27.9175 28.07441 27.7525 28.89041 26.2885 29.33941 25.8755 28.51741 25.5945 27.87441 25.7765 26.9944 26.2065 26.44641 26.4335 26.1604 26.7745 25.96041 27.0575 25.64841 27.4615 25.16841 27.7145 24.50441 27.5415 23.88441 27.3765 23.46041 26.9775 23.1174 26.4935 23.17641 25.6295 23.44541 25.8785 24.66441 25.2815 25.14441 24.8245 25.3954 24.2855 24.7984 24.1065 24.40941 23.3975 22.52941 25.8855 21.04041 27.2545 20.23641 27.7615 19.93641 28.3805 19.73541 28.7535 19.23341 29.1105 18.68541 28.9925 17.89941 28.4915 17.46241 28.1525 17.16941 27.6665 17.25941 27.2785 17.28741 26.4415 17.35341 26.3105 16.29641 26.3155 15.65941 26.5145 11.59041 31.9035 12.61041 32.0585 16.13941 32.0875 17.19141 31.9625 18.60341 30.9165 19.13641 30.5875 19.29941 30.2045 19.30841 29.8065 19.35341 28.9595 19.40641 28.2395 20.1474 28.2135 21.0074 28.2675 21.88141 29.0215 22.44441 29.7185 22.82441 31.6295 23.8694 34.0365 23.17441 34.5575 20.92741 34.6345 20.53041 34.6445 20.09941 34.4675 19.71041 34.2875 19.3264 34.0075 19.04941 33.8315 18.71441 33.2995 17.71041 33.2165 16.4514 33.5385 15.37241 34.0545 13.49841 36.2905 14.3814 36.9165 15.69141 37.4715 16.83241 36.4475 17.90641 36.4965 19.07041 36.5685 20.94641 40.0895 22.08141 41.3965 20.90741 41.9315 20.26541 41.8025 19.18041 41.1795 18.64241 40.4085 18.03041 39.0565 18.85341 38.5555 17.81141 37.8945 16.46441 39.9375 17.5224 40.4915 17.5784 41.2945 17.80841 42.2665 17.69341 42.5455 16.76341 42.7135 16.26841 42.5085 15.61841 41.9955 15.41341 41.3295 15.25941 40.6375 15.6314 39.9405 15.45241 39.5665 15.39141 39.1705 15.30141 38.9135 15.05041 38.3965 14.44441 39.1815 13.58641 39.8265 13.43941 40.9385 13.12941 42.1605 13.39641 43.1785 13.90241 44.1675 14.42041 45.1605 15.2854 45.2725 16.4534 45.2295 18.02541 44.5645 19.48741 44.2385 21.01041 44.1045 22.02641 45.3005 23.9944 46.4085 22.99041 47.5185 21.83741 47.8215 20.13841 47.9595 18.60041 48.0925 16.32741 47.4135 13.68041 45.6715 12.12041 45.0325 11.56641 44.1075 11.67741 43.4315 12.09741 42.7645 12.49741 41.9565 12.66841 41.2165 12.3804 40.4735 12.13141 40.0435 11.35741 39.2645 11.1024 38.8875 10.9734 38.4735 10.96341 38.0885 11.0634 37.6985 11.16341 37.3775 11.41141 37.0185 11.54941 36.6595 11.6954 36.2605 11.7124 35.8795 11.64742 35.4975 11.57841 35.1245 11.45041 34.7895 11.2554 33.7435 10.7234 33.3675 9.09641 34.3555 8.32741 35.1455 7.60741 36.4975 7.63841 37.0755 6.67741 37.4285 5.9904 36.6215 5.3824 36.7995 4.7014 36.8975 4.28841 37.3525 4.17641 37.6105 3.89441 37.7355 3.7424 37.8045 3.54141 37.7835 3.34341 37.7315 2.95441 37.4945 2.61041 37.5085 2.2084 37.5135 1.4234 37.7885 .6584 38.2095 .00041" fill="#f7ebde"/>
<path transform="matrix(1,0,0,-1,0,77.16441)" d="M37.3481 70.563C36.7581 67.397 36.9401 64.00001 38.1531 60.99901 38.8181 59.51401 39.9601 58.28801 41.3161 57.40501 42.6821 56.54101 44.0861 55.69401 45.6371 55.21801 46.4071 54.97301 47.2131 54.84401 47.98111 54.56301 48.7551 54.28801 49.4271 53.78301 49.99511 53.20301 52.8941 50.25001 53.45411 43.92201 50.5721 40.79601 48.6261 38.63201 45.4721 37.972 42.6801 38.37201 41.8661 38.50501 41.1471 38.92501 40.3851 39.20801 38.8791 39.79701 37.3291 40.28601 35.7701 40.71801 34.6331 40.98601 33.3631 41.39401 32.2681 40.82801 31.4811 40.38401 30.6591 39.46901 30.5951 38.54601 30.6111 38.472 30.6181 38.43401 30.7021 38.444 31.5461 38.75501 32.4341 39.082 33.3631 39.03301 34.5981 39.01001 35.8301 38.59501 36.8041 37.83101 37.0851 37.59501 37.3901 37.36301 37.5601 37.026 37.5691 36.99301 37.5931 36.96001 37.5661 36.88401 37.4521 36.694 37.2131 36.89 37.0981 36.92701 36.1331 37.444 35.0301 37.763 33.9331 37.57901 33.0831 37.45401 31.9491 36.91901 32.0581 38.35001 32.1571 39.27001 32.9471 39.85101 33.8331 39.87101 35.4831 40.05201 37.1171 39.43501 38.4991 38.57801 39.9931 37.29701 41.4021 37.19101 43.2911 37.44201 43.4271 37.46001 43.6631 37.39501 43.6271 37.20601 43.5891 37.043 43.5021 36.97901 43.4281 36.89801 42.7191 36.28501 41.8311 35.93501 40.9621 35.64301 40.1821 35.403 39.3671 35.22101 38.5361 35.252 37.7111 35.28901 36.9161 35.431 36.1101 35.48801 34.4881 35.64101 32.8821 35.56001 31.2501 35.56301 30.8451 35.57801 30.3961 35.63401 30.0341 35.88901 28.9791 36.64501 28.7391 38.14901 29.1121 39.32701 29.3731 40.13901 29.9921 40.77501 30.6741 41.22801 32.0671 42.08601 33.6091 42.78101 35.2501 42.91701 36.8691 43.00301 38.4061 43.55001 39.8651 44.222 41.9601 45.21101 42.9631 46.46801 43.1301 48.79901 43.3651 50.02301 44.0581 51.11601 44.8791 52.02901 45.7041 52.94701 46.74511 53.67101 47.8861 54.14101 48.4311 54.38801 49.0211 54.54301 49.4771 54.92401 50.2051 55.63801 49.7301 56.81601 49.1271 57.46801 48.8651 57.75201 48.5721 57.98201 48.1781 58.04401 47.3941 58.17301 46.5731 58.28701 45.7801 58.46001 44.5851 58.71401 43.3961 59.00701 42.2401 59.41501 41.8651 59.53901 41.5141 59.74801 41.1201 59.77901 40.2981 59.89201 39.6011 59.55301 38.8781 59.18601 38.1191 58.84201 37.2601 58.66301 36.4271 58.80701 35.6111 58.96901 34.8861 59.31401 34.0841 59.49301 32.5261 59.86101 30.8921 59.98601 29.3041 59.81501 27.7201 59.62401 26.2971 58.73901 25.1891 57.59401 22.2591 54.52301 19.8721 48.70001 19.6051 44.472 19.57911 43.36501 19.6341 41.92201 20.7401 41.375 21.4271 41.08301 22.3171 41.138 22.9661 41.50901 23.9801 42.17401 24.4351 43.40701 25.4141 44.16201 26.0471 44.69801 26.7931 45.097 27.5851 45.33401 28.3821 45.55601 29.1911 45.71801 30.0191 45.71401 30.8391 45.69801 31.6281 45.51701 32.4421 45.53901 33.2421 45.55101 34.0461 45.64301 34.8181 45.85301 35.5931 46.11601 36.4571 46.08701 37.2641 46.04101 38.2191 46.02101 39.0541 45.91301 39.9841 45.82001 40.0741 45.81701 40.1631 45.84701 40.1571 45.85801 40.1661 45.86201 40.1511 45.94601 40.0971 46.02001 39.8061 46.42801 39.4151 46.74101 39.1051 47.16001 38.1701 48.49001 37.3601 50.04701 37.4281 51.71601 37.4331 52.94801 37.9741 54.09801 37.9871 55.30501 37.9891 55.86301 37.5551 56.41001 37.0121 56.48601 35.9501 56.49301 36.4981 51.11701 36.4381 50.21801 36.3151 46.21601 35.6771 46.45201 32.3471 44.99901 30.5551 44.12401 28.9021 42.793 28.0671 40.94501 27.2901 39.19801 26.9131 36.84601 28.2591 35.28501 28.7641 34.70301 29.5441 34.28201 30.3241 34.43901 30.7061 34.513 31.0891 34.681 31.5041 34.74201 32.3491 34.92701 33.1671 34.50901 33.8151 34.01901 34.8051 33.32901 36.0501 33.01601 37.1871 33.52901 38.7311 34.08901 40.4011 34.17701 42.0181 34.11701 42.4221 34.10901 42.8271 34.09001 43.2111 34.17101 43.5951 34.24701 43.9541 34.43201 44.2701 34.66701 44.7641 35.01001 44.9981 35.65201 45.5101 35.99701 46.0261 36.36 46.6581 36.515 47.2761 36.53101 48.64811 36.573 50.45311 36.04001 50.7681 34.51801 50.8551 33.89701 50.6281 33.28601 50.5141 32.694 50.2421 31.53301 50.5271 30.22901 51.4111 29.401 51.9981 28.85401 52.7861 28.48601 53.2261 27.776 54.11911 26.35501 53.9451 24.53101 53.4141 23.01201 53.27311 22.63001 53.1251 22.24501 52.8911 21.89901 52.35611 21.278 52.0611 20.52301 51.87111 19.739 51.6801 18.957 51.6251 18.14401 51.6831 17.34001 51.74411 16.53901 51.89711 15.73301 52.21611 14.99601 52.3771 14.625 52.6551 14.29701 52.7251 13.88701 53.0871 12.01601 52.1791 9.28801 50.0421 9.04901 49.6241 9.04601 49.2351 9.19101 48.8351 9.22501 48.0411 9.29701 47.2071 9.05101 46.5831 8.552 45.9531 8.05 45.5471 7.26401 44.7721 6.94501 43.5961 6.403 42.3451 6.97 41.2651 7.46001 40.3911 7.88 39.6331 7.72801 39.4271 6.705 39.2441 6.08501 39.6311 5.53201 39.8981 5.00401 40.0151 4.72401 40.0571 4.395 39.9401 4.10901 39.7921 3.84001 39.5481 3.64301 39.3831 3.386 38.9301 2.71701 38.5371 1.99101 38.3301 1.207 38.2331 .813 38.1951 .40601 38.2091 0 38.1391 1.23601 38.6981 2.39301 39.3721 3.39301 39.5761 3.72801 39.9861 3.98201 39.9871 4.408 40.0471 5.04701 39.4761 5.49701 39.3801 6.10201 39.3031 6.67201 39.5001 7.44101 40.0901 7.664 40.4941 7.80101 40.9091 7.63901 41.2781 7.49301 42.0231 7.18501 42.7631 6.79901 43.5781 6.76801 44.3931 6.731 45.1811 7.09001 45.6981 7.72101 46.4351 8.69701 47.5751 9.431 48.84211 9.29201 49.2511 9.25801 49.6421 9.11501 50.0401 9.121 50.8501 9.15401 51.5321 9.75 51.9591 10.40201 52.6051 11.412 52.8651 12.688 52.63411 13.86701 52.5691 14.265 52.2901 14.57401 52.1261 14.95601 51.42611 16.655 51.3681 18.61 51.9221 20.35701 52.1081 20.94201 52.4001 21.49701 52.78711 21.96901 53.5771 23.33501 53.9291 25.05501 53.5691 26.60401 53.38511 27.38901 52.9351 28.07601 52.2751 28.54201 51.6151 29.00401 50.91011 29.52201 50.59111 30.30001 49.9911 31.45101 50.37111 32.73101 50.6111 33.91001 50.8781 36.12001 47.7421 36.767 46.1221 36.14501 45.2891 35.877 45.0241 35.04201 44.3711 34.53401 44.0381 34.28601 43.6581 34.08901 43.2451 34.00601 42.8321 33.92 42.4181 33.94001 42.0131 33.94701 40.4001 34.00401 38.7631 33.916 37.2431 33.362 36.8631 33.23201 36.4621 33.09501 36.0371 33.08301 35.1981 33.07801 34.4001 33.41301 33.7161 33.86801 33.0671 34.34601 32.3581 34.73201 31.5331 34.56001 30.7631 34.39501 29.8981 33.99301 29.1161 34.41201 27.0891 35.35301 26.8801 37.96801 27.4641 39.87201 28.1001 42.30001 30.0461 44.127 32.2581 45.18101 33.5861 45.90201 35.6081 46.10201 35.9851 47.82401 36.3021 49.41401 36.2281 51.03201 36.1391 52.64901 36.1511 53.87801 36.0541 55.13001 36.4521 56.31701 36.6711 56.85301 37.2581 56.76201 37.6341 56.44701 37.9901 56.19301 38.2011 55.74901 38.2101 55.31701 38.2071 54.08501 37.6601 52.92701 37.6561 51.70901 37.6191 50.90901 37.7951 50.12801 38.1181 49.39101 38.4271 48.65201 38.8151 47.94101 39.2931 47.30101 39.6081 46.84801 40.1291 46.50401 40.3771 45.98501 40.5331 45.32201 39.3981 45.67301 39.0651 45.68401 38.0701 45.77701 37.0441 45.82701 36.0481 45.82801 35.6511 45.81901 35.2741 45.72901 34.8801 45.61801 33.6901 45.30001 32.4361 45.21701 31.2161 45.36201 29.2691 45.64501 27.1021 45.25601 25.5791 43.96701 24.9651 43.45801 24.5161 42.79401 24.0161 42.14301 23.2951 41.07001 21.8291 40.61901 20.6301 41.13601 18.2671 42.33701 19.6981 47.29601 20.3001 49.276 20.7981 50.832 21.4571 52.32601 22.1941 53.77901 23.6701 56.59701 25.8781 59.65501 29.2681 60.10501 30.9061 60.27801 32.5561 60.14901 34.1521 59.77101 34.9371 59.59701 35.6991 59.24001 36.4751 59.08501 37.2451 58.95101 38.0531 59.12001 38.7621 59.44101 39.4761 59.81001 40.3091 60.18501 41.1481 60.05401 41.9581 59.91301 42.6781 59.484 43.4841 59.30501 45.0461 58.84901 46.6171 58.54901 48.23211 58.30601 49.4181 58.06601 50.39911 56.45701 50.0171 55.28801 49.88411 54.86401 49.4981 54.56001 49.1141 54.38101 48.3721 54.03401 47.6101 53.79201 46.9141 53.36801 45.5521 52.554 44.4061 51.32101 43.7381 49.87901 43.3741 49.13901 43.3261 48.35701 43.1951 47.54801 42.8751 45.86701 41.4511 44.67701 39.9691 44.00301 38.8481 43.502 37.7021 43.041 36.4901 42.82401 35.2901 42.655 34.0691 42.63501 32.9521 42.11701 31.5401 41.512 29.8591 40.81501 29.3281 39.25601 28.8361 37.84601 29.4961 35.70101 31.2591 35.78501 32.8701 35.78 34.5131 35.85701 36.1271 35.70301 36.9391 35.64401 37.7471 35.5 38.5431 35.46401 39.3391 35.433 40.1331 35.60701 40.8991 35.84201 41.6601 36.08701 42.4141 36.405 43.0611 36.86101 43.1861 36.95001 43.3811 37.10701 43.4231 37.23201 42.9441 37.24501 42.3161 37.10401 41.7761 37.127 40.9521 37.13501 40.1211 37.30101 39.3851 37.70301 38.6951 38.168 38.1071 38.67301 37.3361 38.98601 35.9891 39.65701 32.5561 40.50301 32.2451 38.32501 32.1081 37.11701 33.1911 37.68701 33.9061 37.763 34.9321 37.929 35.9861 37.68901 36.9051 37.22501 37.0451 37.166 37.2961 37.01401 37.4301 36.98601 37.4521 36.98601 37.4181 36.98801 37.4001 36.95801 37.3931 36.929 37.3991 36.95101 37.3901 36.96301 35.9671 38.832 33.1281 39.34201 31.0321 38.36701 30.8291 38.27101 30.4611 38.16901 30.4261 38.52001 30.4001 38.762 30.4821 38.95801 30.5551 39.15401 30.8921 39.91401 31.4551 40.57801 32.1901 40.97601 33.3241 41.569 34.6571 41.153 35.8121 40.87601 37.3791 40.43901 38.9271 39.94801 40.4431 39.35401 41.1961 39.07401 41.9091 38.655 42.7071 38.52401 46.8091 37.91401 51.1441 39.72901 52.1011 44.07001 52.87011 47.84301 51.8111 52.83901 47.95311 54.48801 47.1981 54.76801 46.3901 54.90101 45.6151 55.15001 44.0551 55.63601 42.6521 56.49001 41.2871 57.36001 40.6141 57.81501 39.9771 58.33201 39.4401 58.94401 36.8841 61.91301 36.6641 66.86401 37.3481 70.563" fill="#f7ebde"/>
</svg>
